<svg xmlns="http://www.w3.org/2000/svg" viewBox="0 0 32 32" fill="#fd0713" height="15" width="15">
    <title>Pin Error Hover</title>
    <g id="_32.Pin" data-name="32.Pin">
        <path d="M29.12,5.71,25.29,1.88A3,3,0,0,0,23.17,1H5A3,3,0,0,0,2,4V18a3,3,0,0,0,3,3H8.32l3.75,9.37A1,1,0,0,0,13,31a6.42,6.42,0,0,0,6-8.8L18.48,21H27a3,3,0,0,0,3-3V7.83A3,3,0,0,0,29.12,5.71ZM4,18V4A1,1,0,0,1,5,3H8V19H5A1,1,0,0,1,4,18Zm24,0a1,1,0,0,1-1,1H17a1,1,0,0,0-.93,1.37l1,2.57a4.38,4.38,0,0,1-.44,4.12,4.31,4.31,0,0,1-3,1.89L10,19.81V3H23.17a1,1,0,0,1,.71.29l3.83,3.83a1,1,0,0,1,.29.71Z"/>
    </g>
</svg>